<?xml version="1.0" standalone="no"?>
<!DOCTYPE svg PUBLIC "-//W3C//DTD SVG 20010904//EN"
 "http://www.w3.org/TR/2001/REC-SVG-20010904/DTD/svg10.dtd">
<svg version="1.0" xmlns="http://www.w3.org/2000/svg"
 width="768.000000pt" height="768.000000pt" viewBox="0 0 768.000000 768.000000"
 preserveAspectRatio="xMidYMid meet">
<metadata>
Created by potrace 1.11, written by Peter Selinger 2001-2013
</metadata>
<g transform="translate(0.000000,768.000000) scale(0.100000,-0.100000)"
fill="#000000" stroke="none">
<path d="M3885 6216 c-328 -75 -552 -365 -540 -699 2 -45 11 -109 20 -142 31
-109 33 -99 -32 -113 -80 -16 -279 -81 -388 -126 -99 -41 -301 -141 -325 -161
-8 -7 -37 -25 -65 -41 -217 -125 -492 -397 -616 -609 -82 -139 -157 -325 -173
-425 -3 -19 -10 -59 -16 -89 -5 -29 -10 -73 -10 -97 0 -39 -3 -44 -22 -45 -13
0 -30 -2 -38 -4 -8 -1 -34 -6 -57 -9 -23 -4 -66 -15 -96 -25 -51 -18 -55 -18
-99 -1 -61 23 -107 31 -176 31 -116 -1 -197 -24 -294 -84 -74 -46 -87 -122
-31 -167 37 -29 74 -25 145 15 59 32 83 38 180 49 l37 4 -22 -42 c-86 -156
-62 -375 50 -464 130 -103 317 -34 366 136 27 94 7 256 -41 330 -8 12 -13 25
-10 27 2 3 28 6 58 7 l53 3 14 -80 c63 -377 312 -741 694 -1017 87 -62 226
-148 241 -148 6 0 7 -16 4 -37 -3 -21 -8 -60 -11 -88 -3 -27 -8 -61 -10 -75
-2 -14 -6 -50 -10 -81 -3 -31 -7 -66 -10 -77 -11 -57 -16 -157 -11 -188 4 -19
21 -50 37 -69 27 -30 51 -41 176 -81 243 -78 270 -67 380 151 117 230 138 270
147 276 4 4 34 1 65 -6 78 -18 200 -37 341 -52 146 -16 562 -9 690 11 14 2 47
7 73 11 27 4 59 8 70 11 88 17 131 24 133 21 3 -3 65 -133 174 -362 68 -144
118 -167 278 -124 218 58 246 71 275 132 18 38 21 77 13 162 -9 84 -14 138
-22 225 -3 41 -10 107 -14 145 -9 82 -20 68 125 157 322 197 560 446 699 731
30 62 63 133 72 159 15 43 21 49 58 59 178 46 201 54 232 81 19 17 37 43 42
60 4 16 7 134 6 261 -1 310 -6 320 -193 352 -53 9 -105 20 -116 24 -12 5 -27
30 -39 62 -43 124 -113 250 -211 380 l-73 97 3 93 c2 52 7 182 10 289 4 107 8
230 10 272 3 93 -15 131 -70 147 -35 9 -81 -4 -220 -64 -16 -8 -66 -27 -110
-44 -44 -18 -89 -36 -100 -41 -11 -5 -78 -32 -149 -59 l-128 -50 -82 33 c-150
62 -357 125 -533 162 -21 4 -22 6 -8 45 21 59 29 122 28 220 -4 312 -221 578
-534 655 -53 14 -236 13 -294 0z m-2400 -2888 c10 -24 19 -71 21 -105 2 -50
-1 -67 -17 -87 -26 -33 -44 -33 -66 0 -24 37 -23 138 1 192 11 23 25 42 31 42
7 0 21 -19 30 -42z"/>
</g>
</svg>
